<svg version="1.1" xmlns="http://www.w3.org/2000/svg" xmlns:xlink="http://www.w3.org/1999/xlink" width="16" height="16" viewBox="0,0,256,256"><g fill="#ffffff" fill-rule="nonzero" stroke="none" stroke-width="1" stroke-linecap="butt" stroke-linejoin="miter" stroke-miterlimit="10" stroke-dasharray="" stroke-dashoffset="0" font-family="none" font-weight="none" font-size="none" text-anchor="none" style="mix-blend-mode: normal"><path d="M64,256c-35.34622,0 -64,-28.65378 -64,-64v-128c0,-35.34622 28.65378,-64 64,-64h128c35.34622,0 64,28.65378 64,64v128c0,35.34622 -28.65378,64 -64,64z" id="shape"></path></g><g fill="#4969e7" fill-rule="nonzero" stroke="none" stroke-width="1" stroke-linecap="butt" stroke-linejoin="miter" stroke-miterlimit="10" stroke-dasharray="" stroke-dashoffset="0" font-family="none" font-weight="none" font-size="none" text-anchor="none" style="mix-blend-mode: normal"><g transform="translate(0.00306,8.00243) scale(16,16)"><path d="M1.475,9c1.227,1.84 3.304,3.871 6.525,6c3.221,-2.129 5.298,-4.16 6.525,-6h-2.525c-0.20429,-0.00005 -0.388,-0.12437 -0.464,-0.314l-1.457,-3.642l-1.598,5.593c-0.05858,0.20565 -0.24144,0.35128 -0.45498,0.36236c-0.21354,0.01107 -0.41049,-0.11487 -0.49002,-0.31336l-1.647,-4.118l-1.473,2.21c-0.09288,0.13884 -0.24896,0.22214 -0.416,0.222z"></path><path d="M0.88,8c-3.307,-6.32 3.53,-10 6.943,-6.857c0.06,0.05533 0.11867,0.11233 0.176,0.171c0.05633,-0.05904 0.11505,-0.11575 0.176,-0.17c3.415,-3.144 10.251,0.536 6.945,6.856h-2.783l-1.874,-4.686c-0.07953,-0.19849 -0.27648,-0.32443 -0.49002,-0.31336c-0.21354,0.01107 -0.3964,0.15671 -0.45498,0.36236l-1.597,5.593l-1.457,-3.642c-0.06916,-0.17218 -0.22798,-0.29191 -0.41255,-0.311c-0.18457,-0.01909 -0.36453,0.06561 -0.46745,0.22l-1.852,2.777z"></path></g></g></svg>