<svg version="1.1" xmlns="http://www.w3.org/2000/svg" xmlns:xlink="http://www.w3.org/1999/xlink" width="16" height="16" viewBox="0,0,256,256"><g fill="#20c997" fill-rule="nonzero" stroke="none" stroke-width="1" stroke-linecap="butt" stroke-linejoin="miter" stroke-miterlimit="10" stroke-dasharray="" stroke-dashoffset="0" font-family="none" font-weight="none" font-size="none" text-anchor="none" style="mix-blend-mode: normal"><path d="M64,256c-35.34622,0 -64,-28.65378 -64,-64v-128c0,-35.34622 28.65378,-64 64,-64h128c35.34622,0 64,28.65378 64,64v128c0,35.34622 -28.65378,64 -64,64z" id="shape"></path></g><g fill="#ffffff" fill-rule="nonzero" stroke="none" stroke-width="1" stroke-linecap="butt" stroke-linejoin="miter" stroke-miterlimit="10" stroke-dasharray="" stroke-dashoffset="0" font-family="none" font-weight="none" font-size="none" text-anchor="none" style="mix-blend-mode: normal"><g transform="translate(-0.0004,8.00079) scale(16,16)"><path d="M8,2.748l-0.717,-0.737c-1.683,-1.73 -4.769,-1.133 -5.883,1.042c-0.482,0.942 -0.62,2.27 0.108,3.947h-1.078c-2.128,-5.697 4.165,-8.83 7.394,-5.857c0.06,0.05533 0.11867,0.11233 0.176,0.171c0.05633,-0.05904 0.11505,-0.11575 0.176,-0.17c3.23,-2.974 9.522,0.159 7.394,5.856h-1.078c0.728,-1.677 0.59,-3.005 0.108,-3.947c-1.114,-2.175 -4.2,-2.773 -5.883,-1.043zM2.212,10h1.315c1.066,1.183 2.523,2.458 4.473,3.795c1.949,-1.337 3.407,-2.612 4.473,-3.795h1.315c-1.265,1.566 -3.14,3.25 -5.788,5c-2.648,-1.75 -4.523,-3.434 -5.788,-5"></path><path d="M10.464,3.314c-0.07953,-0.19849 -0.27648,-0.32443 -0.49002,-0.31336c-0.21354,0.01107 -0.3964,0.15671 -0.45498,0.36236l-1.598,5.593l-1.457,-3.642c-0.06916,-0.17218 -0.22798,-0.29191 -0.41255,-0.311c-0.18457,-0.01909 -0.36453,0.06561 -0.46745,0.22l-1.852,2.777h-3.232c-0.27614,0 -0.5,0.22386 -0.5,0.5c0,0.27614 0.22386,0.5 0.5,0.5h3.5c0.16723,-0.00009 0.32335,-0.08377 0.416,-0.223l1.473,-2.209l1.647,4.118c0.07953,0.19849 0.27648,0.32443 0.49002,0.31336c0.21354,-0.01107 0.3964,-0.15671 0.45498,-0.36236l1.598,-5.593l1.457,3.642c0.076,0.18963 0.25971,0.31395 0.464,0.314h3.5c0.27614,0 0.5,-0.22386 0.5,-0.5c0,-0.27614 -0.22386,-0.5 -0.5,-0.5h-3.162z"></path></g></g></svg>