<?xml version="1.0" standalone="no"?>
<!DOCTYPE svg PUBLIC "-//W3C//DTD SVG 20010904//EN"
 "http://www.w3.org/TR/2001/REC-SVG-20010904/DTD/svg10.dtd">
<svg version="1.0" xmlns="http://www.w3.org/2000/svg"
 width="500.000000pt" height="500.000000pt" viewBox="0 0 500.000000 500.000000"
 preserveAspectRatio="xMidYMid meet">

<g transform="translate(0.000000,500.000000) scale(0.100000,-0.100000)"
fill="#000000" stroke="none">
<path d="M2313 2997 c-52 -20 -51 -29 2 -22 57 9 59 10 50 24 -7 13 -11 13
-52 -2z"/>
<path d="M1817 2929 c-58 -45 -58 -153 0 -198 38 -31 132 -29 167 2 34 30 39
71 9 75 -14 2 -26 -4 -34 -20 -16 -31 -28 -38 -66 -38 -39 0 -63 30 -63 80 0
51 24 80 65 80 32 0 65 -21 65 -41 0 -5 13 -9 29 -9 29 0 30 1 19 30 -15 44
-44 60 -109 60 -42 0 -63 -5 -82 -21z"/>
<path d="M2060 2830 l0 -120 80 0 c73 0 80 2 80 20 0 18 -7 20 -55 20 l-55 0
0 100 0 100 -25 0 -25 0 0 -120z"/>
<path d="M2250 2930 c0 -13 7 -20 20 -20 18 0 20 -7 20 -80 0 -73 -2 -80 -20
-80 -13 0 -20 -7 -20 -20 0 -18 7 -20 70 -20 63 0 70 2 70 20 0 13 -7 20 -20
20 -18 0 -20 7 -20 80 0 73 2 80 20 80 13 0 20 7 20 20 0 18 -7 20 -70 20 -63
0 -70 -2 -70 -20z"/>
<path d="M2437 2943 c-4 -3 -7 -57 -7 -120 l0 -113 25 0 c25 0 25 0 25 97 0
53 4 93 8 88 5 -6 26 -49 48 -97 l39 -88 43 0 42 0 0 120 0 120 -25 0 c-25 0
-25 -1 -26 -92 l0 -93 -44 93 -44 92 -39 0 c-21 0 -42 -3 -45 -7z"/>
<path d="M2710 2930 c0 -13 7 -20 20 -20 18 0 20 -7 20 -80 0 -73 -2 -80 -20
-80 -13 0 -20 -7 -20 -20 0 -18 7 -20 70 -20 63 0 70 2 70 20 0 13 -7 20 -20
20 -18 0 -20 7 -20 80 0 73 2 80 20 80 13 0 20 7 20 20 0 18 -7 20 -70 20 -63
0 -70 -2 -70 -20z"/>
<path d="M2928 2921 c-31 -27 -33 -34 -33 -91 0 -57 2 -64 33 -91 28 -25 40
-29 93 -29 50 0 64 4 84 25 14 13 25 36 25 50 0 20 -5 25 -25 25 -14 0 -25 -6
-25 -13 0 -42 -83 -63 -113 -29 -24 26 -23 104 1 125 28 26 77 22 100 -8 21
-27 62 -34 62 -11 0 48 -44 76 -119 76 -42 0 -56 -5 -83 -29z"/>
<path d="M3203 2830 l-41 -120 28 0 c21 0 29 6 34 25 6 23 11 25 61 25 50 0
56 -3 65 -25 7 -18 17 -25 36 -25 17 0 24 4 21 13 -2 6 -21 60 -42 120 l-38
107 -41 0 -41 0 -42 -120z m113 -4 c6 -25 4 -26 -31 -26 -28 0 -36 4 -32 14 3
8 11 33 18 57 l13 42 13 -30 c6 -17 15 -42 19 -57z"/>
<path d="M1223 2883 c-13 -2 -32 -16 -44 -31 -19 -25 -20 -37 -17 -177 3 -144
4 -152 31 -198 73 -123 231 -151 337 -59 70 59 80 93 80 268 0 185 -6 198 -91
199 -47 0 -54 -2 -54 -20 0 -16 8 -21 42 -23 61 -4 66 -20 61 -171 -3 -108 -7
-132 -26 -166 -73 -128 -253 -123 -313 9 -15 33 -19 66 -19 172 0 137 7 162
44 148 9 -3 28 -3 42 0 19 5 25 12 22 29 -2 18 -10 22 -38 23 -19 1 -45 0 -57
-3z"/>
<path d="M2383 2667 c-52 -20 -51 -29 2 -22 57 9 59 10 50 24 -7 13 -11 13
-52 -2z"/>
<path d="M1960 2501 l0 -121 25 0 c24 0 24 1 27 98 l3 97 30 -95 c29 -92 32
-95 62 -98 31 -3 31 -3 61 90 l30 93 1 -92 1 -93 30 0 30 0 0 120 0 120 -48 0
-48 0 -24 -86 c-13 -47 -26 -87 -30 -89 -4 -2 -18 35 -32 83 l-25 87 -46 3
-47 3 0 -120z"/>
<path d="M2300 2500 l0 -120 95 0 c88 0 95 1 95 20 0 18 -7 20 -70 20 l-70 0
0 30 0 30 60 0 c53 0 60 2 60 20 0 18 -7 20 -60 20 l-60 0 0 30 0 30 65 0 c58
0 65 2 65 20 0 19 -7 20 -90 20 l-90 0 0 -120z"/>
<path d="M2530 2500 l0 -122 81 4 c77 3 82 5 110 36 24 26 29 41 29 82 0 41
-5 56 -29 82 -28 31 -33 33 -110 36 l-81 4 0 -122z m145 55 c52 -51 15 -135
-60 -135 l-35 0 0 80 0 80 35 0 c25 0 44 -8 60 -25z"/>
<path d="M2790 2600 c0 -13 7 -20 20 -20 18 0 20 -7 20 -80 0 -73 -2 -80 -20
-80 -13 0 -20 -7 -20 -20 0 -18 7 -20 70 -20 63 0 70 2 70 20 0 13 -7 20 -20
20 -18 0 -20 7 -20 80 0 73 2 80 20 80 13 0 20 7 20 20 0 18 -7 20 -70 20 -63
0 -70 -2 -70 -20z"/>
<path d="M3008 2591 c-31 -27 -33 -34 -33 -91 0 -57 2 -64 33 -91 28 -25 40
-29 93 -29 50 0 64 4 84 25 14 13 25 36 25 50 0 20 -5 25 -25 25 -14 0 -25 -6
-25 -13 0 -42 -83 -63 -113 -29 -24 26 -23 104 1 125 28 26 77 22 100 -8 21
-27 62 -34 62 -11 0 48 -44 76 -119 76 -42 0 -56 -5 -83 -29z"/>
<path d="M3325 2608 c-58 -162 -75 -211 -75 -218 0 -6 11 -10 25 -10 18 0 26
7 31 25 6 23 11 25 64 25 53 0 58 -2 64 -25 5 -18 13 -25 31 -25 14 0 25 2 25
5 0 6 -61 183 -75 218 -9 20 -83 25 -90 5z m67 -88 l16 -50 -40 0 c-28 0 -39
4 -35 13 2 6 10 29 18 50 7 20 16 37 19 37 3 0 13 -22 22 -50z"/>
<path d="M985 2485 c-52 -51 -23 -136 52 -151 25 -5 37 0 64 24 26 23 33 37
33 67 0 75 -96 114 -149 60z"/>
<path d="M1761 2163 c1 -38 1 -38 9 -8 4 17 8 24 9 16 0 -8 3 -12 6 -9 8 7 -5
38 -16 38 -5 0 -8 -17 -8 -37z"/>
<path d="M1827 2168 c8 -46 13 -48 13 -5 0 21 -4 37 -10 37 -5 0 -7 -14 -3
-32z"/>
<path d="M1891 2168 c-1 -35 1 -38 27 -37 23 2 24 2 5 6 -27 5 -30 20 -5 26
15 4 15 5 0 6 -9 0 -19 9 -21 19 -3 9 -5 0 -6 -20z"/>
<path d="M1992 2168 c-2 -34 1 -38 21 -37 15 1 17 3 5 6 -10 2 -18 17 -21 36
-4 31 -4 31 -5 -5z"/>
<path d="M2022 2194 c9 -3 19 -16 21 -30 4 -21 4 -21 3 3 -1 20 -7 28 -21 30
-14 1 -15 0 -3 -3z"/>
<path d="M2195 2189 c-4 -6 -5 -12 -2 -15 2 -3 7 2 10 11 7 17 1 20 -8 4z"/>
<path d="M2318 2193 c7 -3 16 -2 19 1 4 3 -2 6 -13 5 -11 0 -14 -3 -6 -6z"/>
<path d="M2391 2163 c2 -31 3 -33 6 -10 2 15 9 25 14 22 5 -3 6 1 3 9 -11 29
-24 16 -23 -21z"/>
<path d="M2440 2174 c0 -14 -4 -22 -10 -19 -6 3 -7 -1 -4 -9 11 -28 24 -17 24
19 0 19 -2 35 -5 35 -3 0 -5 -12 -5 -26z"/>
<path d="M2678 2193 c6 -2 18 -2 25 0 6 3 1 5 -13 5 -14 0 -19 -2 -12 -5z"/>
<path d="M2785 2189 c-4 -5 -4 -13 -1 -16 3 -4 6 0 6 8 0 11 2 11 10 -1 6 -9
10 -10 10 -3 0 17 -17 25 -25 12z"/>
<path d="M2871 2163 c1 -38 1 -38 9 -8 4 17 8 24 9 16 0 -8 3 -12 6 -9 8 7 -5
38 -16 38 -5 0 -8 -17 -8 -37z"/>
<path d="M2937 2168 c8 -46 13 -48 13 -5 0 21 -4 37 -10 37 -5 0 -7 -14 -3
-32z"/>
<path d="M3008 2193 c7 -3 16 -2 19 1 4 3 -2 6 -13 5 -11 0 -14 -3 -6 -6z"/>
<path d="M3185 2165 c0 -19 5 -35 10 -35 6 0 10 16 10 35 0 19 -4 35 -10 35
-5 0 -10 -16 -10 -35z"/>
<path d="M3285 2189 c-4 -5 -4 -13 -1 -16 3 -4 6 0 6 8 0 11 2 11 10 -1 6 -9
10 -10 10 -3 0 17 -17 25 -25 12z"/>
<path d="M3371 2163 c1 -21 3 -30 6 -20 3 13 11 17 24 14 10 -3 19 -1 19 4 0
5 -9 9 -20 9 -11 0 -20 5 -20 11 0 7 10 9 25 7 13 -3 22 -1 19 3 -3 5 -16 9
-30 9 -21 0 -24 -4 -23 -37z"/>
<path d="M1803 2154 c-15 -16 -16 -24 -4 -24 8 0 24 30 19 35 -2 2 -9 -3 -15
-11z"/>
<path d="M2678 2163 c6 -2 18 -2 25 0 6 3 1 5 -13 5 -14 0 -19 -2 -12 -5z"/>
<path d="M2913 2154 c-15 -16 -16 -24 -4 -24 8 0 24 30 19 35 -2 2 -9 -3 -15
-11z"/>
<path d="M2190 2151 c0 -10 19 -25 25 -20 1 2 -3 10 -11 17 -8 7 -14 8 -14 3z"/>
<path d="M2500 2149 c0 -5 5 -7 10 -4 6 3 10 8 10 11 0 2 -4 4 -10 4 -5 0 -10
-5 -10 -11z"/>
<path d="M2766 2143 c-6 -14 -5 -15 5 -6 7 7 10 15 7 18 -3 3 -9 -2 -12 -12z"/>
<path d="M2810 2151 c0 -6 4 -13 10 -16 6 -3 7 1 4 9 -7 18 -14 21 -14 7z"/>
<path d="M3266 2143 c-6 -14 -5 -15 5 -6 7 7 10 15 7 18 -3 3 -9 -2 -12 -12z"/>
<path d="M3310 2151 c0 -6 4 -13 10 -16 6 -3 7 1 4 9 -7 18 -14 21 -14 7z"/>
<path d="M2108 2133 c7 -3 16 -2 19 1 4 3 -2 6 -13 5 -11 0 -14 -3 -6 -6z"/>
<path d="M2318 2133 c7 -3 16 -2 19 1 4 3 -2 6 -13 5 -11 0 -14 -3 -6 -6z"/>
<path d="M3008 2133 c7 -3 16 -2 19 1 4 3 -2 6 -13 5 -11 0 -14 -3 -6 -6z"/>
<path d="M3098 2133 c6 -2 18 -2 25 0 6 3 1 5 -13 5 -14 0 -19 -2 -12 -5z"/>
</g>
</svg>
